<svg width="20" height="20" viewBox="0 0 16 16" fill="none" xmlns="http://www.w3.org/2000/svg">
  <path d="M8.19652 6.0103C7.78617 5.96977 7.37332 6.05707 7.0145 6.26024C6.65568 6.46342 6.36844 6.77253 6.19209 7.14526C6.01574 7.518 5.9589 7.93613 6.02937 8.34241C6.09984 8.74869 6.29416 9.12326 6.58574 9.41483C6.87731 9.7064 7.25188 9.90072 7.65816 9.97119C8.06444 10.0417 8.48257 9.98483 8.8553 9.80848C9.22803 9.63213 9.53715 9.34488 9.74032 8.98606C9.94349 8.62724 10.0308 8.2144 9.99027 7.80405C9.94406 7.34404 9.74023 6.91415 9.41332 6.58724C9.08641 6.26033 8.65652 6.0565 8.19652 6.0103V6.0103ZM13.0121 8.00061C13.0109 8.218 12.9949 8.43506 12.9643 8.6503L14.3771 9.75842C14.4387 9.80942 14.4801 9.88057 14.4941 9.95924C14.5081 10.0379 14.4938 10.119 14.4537 10.1881L13.1171 12.5006C13.0766 12.5691 13.0131 12.621 12.938 12.6472C12.8629 12.6734 12.7809 12.6723 12.7065 12.644L11.3034 12.079C11.226 12.0482 11.1422 12.0371 11.0595 12.0467C10.9767 12.0562 10.8977 12.0861 10.8293 12.1337C10.6152 12.2812 10.3902 12.4122 10.1562 12.5256C10.0826 12.5614 10.019 12.6147 9.97096 12.6808C9.92289 12.747 9.89185 12.824 9.88058 12.905L9.67027 14.4015C9.65645 14.4806 9.61562 14.5524 9.55474 14.6046C9.49387 14.6569 9.41673 14.6864 9.33652 14.6881H6.66339C6.5845 14.6867 6.50842 14.6585 6.4477 14.6082C6.38698 14.5578 6.34523 14.4882 6.32933 14.4109L6.11933 12.9165C6.10754 12.8347 6.07569 12.7569 6.02662 12.6903C5.97756 12.6237 5.91279 12.5702 5.83808 12.5347C5.6044 12.4219 5.38014 12.2905 5.16745 12.1419C5.09936 12.0945 5.02055 12.0648 4.93812 12.0555C4.85569 12.0461 4.77223 12.0575 4.69527 12.0884L3.29246 12.6531C3.21811 12.6814 3.13617 12.6826 3.06105 12.6564C2.98594 12.6302 2.92247 12.5784 2.88183 12.51L1.54527 10.1975C1.50509 10.1284 1.49073 10.0473 1.50475 9.9686C1.51877 9.88991 1.56026 9.81876 1.62183 9.7678L2.81589 8.8303C2.88131 8.77837 2.93272 8.71092 2.96547 8.63409C2.99821 8.55725 3.01125 8.47345 3.00339 8.3903C2.99214 8.25999 2.98527 8.12999 2.98527 7.99967C2.98527 7.86936 2.99183 7.74124 3.00339 7.61374C3.01039 7.53109 2.99671 7.448 2.9636 7.37195C2.93049 7.29591 2.87897 7.22929 2.81371 7.17811L1.62027 6.24061C1.55969 6.18939 1.51908 6.11848 1.50554 6.04032C1.49199 5.96216 1.50639 5.88172 1.54621 5.81311L2.88277 3.50061C2.92336 3.43217 2.9868 3.38025 3.06192 3.35401C3.13704 3.32777 3.21902 3.32889 3.29339 3.35717L4.69652 3.92217C4.77389 3.95298 4.8577 3.96411 4.94044 3.95457C5.02318 3.94502 5.10225 3.9151 5.17058 3.86749C5.38472 3.72002 5.60974 3.58902 5.8437 3.47561C5.91726 3.43986 5.98088 3.38655 6.02895 3.32038C6.07702 3.25422 6.10806 3.17724 6.11933 3.09624L6.32964 1.59967C6.34346 1.52064 6.38429 1.44885 6.44516 1.39658C6.50604 1.34431 6.58317 1.31481 6.66339 1.31311H9.33652C9.41541 1.31448 9.49148 1.34267 9.55221 1.39306C9.61293 1.44344 9.65468 1.51301 9.67058 1.5903L9.88058 3.08467C9.89237 3.16657 9.92422 3.24428 9.97328 3.3109C10.0223 3.37752 10.0871 3.43099 10.1618 3.46655C10.3955 3.57935 10.6198 3.71071 10.8325 3.85936C10.9005 3.90674 10.9794 3.93643 11.0618 3.94576C11.1442 3.95509 11.2277 3.94376 11.3046 3.9128L12.7075 3.34811C12.7818 3.3198 12.8637 3.31863 12.9389 3.34482C13.014 3.371 13.0774 3.42285 13.1181 3.49124L14.4546 5.80374C14.4948 5.87283 14.5092 5.95393 14.4952 6.03262C14.4811 6.11131 14.4397 6.18246 14.3781 6.23342L13.184 7.17092C13.1183 7.22268 13.0666 7.29005 13.0336 7.3669C13.0006 7.44375 12.9873 7.52763 12.995 7.61092C13.0053 7.7403 13.0121 7.8703 13.0121 8.00061Z" stroke="#E0A500" stroke-width="1.5" stroke-linecap="round" stroke-linejoin="round"/>
  </svg>
