<svg width="194" height="194" viewBox="0 0 194 194" fill="none" xmlns="http://www.w3.org/2000/svg">
  <path d="M118 114.989C118 103.396 108.594 93.9894 97 93.9894C85.4062 93.9894 76 103.396 76 114.989C76 126.583 85.4062 135.989 97 135.989C108.594 135.989 118 126.583 118 114.989Z" stroke="#808080" stroke-width="1.5" stroke-miterlimit="10"/>
  <path d="M105.75 114.991H88.2502M97.0002 106.241V123.741V106.241Z" stroke="#808080" stroke-width="1.5" stroke-linecap="round" stroke-linejoin="round"/>
  <path d="M158.811 66.6658H35.189C29.1476 66.6658 24.25 71.5633 24.25 77.6048V152.727C24.25 158.768 29.1476 163.666 35.189 163.666H158.811C164.852 163.666 169.75 158.768 169.75 152.727V77.6048C169.75 71.5633 164.852 66.6658 158.811 66.6658Z" stroke="#666666" stroke-width="1.5" stroke-linejoin="round"/>
  <path d="M42.4385 48.4922H151.563Z" fill="#666666"/>
  <path d="M54.5635 30.3047H139.438M42.4385 48.4922H151.563" stroke="#666666" stroke-width="1.5" stroke-miterlimit="10" stroke-linecap="round"/>
  </svg>
