<svg width="20" height="20" viewBox="0 0 24 24" fill="none" xmlns="http://www.w3.org/2000/svg">
  <path d="M15.7502 6L12.0002 2.25M12.0002 2.25L8.25024 6M12.0002 2.25V15.0469M15.7502 9H17.6252C18.1225 9 18.5994 9.19754 18.9511 9.54917C19.3027 9.9008 19.5002 10.3777 19.5002 10.875V19.875C19.5002 20.3723 19.3027 20.8492 18.9511 21.2008C18.5994 21.5525 18.1225 21.75 17.6252 21.75H6.37524C5.87796 21.75 5.40105 21.5525 5.04942 21.2008C4.69779 20.8492 4.50024 20.3723 4.50024 19.875V10.875C4.50024 10.3777 4.69779 9.9008 5.04942 9.54917C5.40105 9.19754 5.87796 9 6.37524 9H8.25024H15.7502Z" stroke="#E0A500" stroke-width="1.5" stroke-linecap="round" stroke-linejoin="round"/>
  </svg>
