<svg width="43" height="43" viewBox="0 0 43 43" fill="none" xmlns="http://www.w3.org/2000/svg">
  <path d="M21.5 6.71989C18.5766 6.71989 15.7187 7.5868 13.288 9.21098C10.8572 10.8352 8.96267 13.1437 7.84391 15.8446C6.72515 18.5455 6.43244 21.5175 7.00277 24.3848C7.57311 27.2521 8.98089 29.8859 11.0481 31.9531C13.1153 34.0203 15.749 35.428 18.6163 35.9984C21.4836 36.5687 24.4556 36.276 27.1565 35.1572C29.8575 34.0385 32.166 32.1439 33.7902 29.7132C35.4144 27.2824 36.2813 24.4246 36.2813 21.5011C36.2813 17.5809 34.724 13.8212 31.9519 11.0492C29.1799 8.2772 25.4202 6.71989 21.5 6.71989Z" stroke="#FFCC00" stroke-width="1.5" stroke-miterlimit="10"/>
  <path d="M16.7969 16.9894C16.7969 16.9894 16.8674 15.5196 18.4404 14.254C19.3735 13.5023 20.4922 13.2848 21.5 13.2697C22.4179 13.2579 23.2376 13.4099 23.7281 13.6434C24.5679 14.0432 26.2031 15.0191 26.2031 17.0943C26.2031 19.2779 24.7754 20.2698 23.1486 21.3607C21.5218 22.4517 21.0801 23.6359 21.0801 24.8595" stroke="#FFCC00" stroke-width="1.3125" stroke-miterlimit="10" stroke-linecap="round"/>
  <path d="M20.9961 30.9058C21.9238 30.9058 22.6758 30.1538 22.6758 29.2261C22.6758 28.2984 21.9238 27.5464 20.9961 27.5464C20.0684 27.5464 19.3164 28.2984 19.3164 29.2261C19.3164 30.1538 20.0684 30.9058 20.9961 30.9058Z" fill="#FFCC00"/>
  </svg>
