<svg width="25" height="24" viewBox="0 0 25 24" fill="none" xmlns="http://www.w3.org/2000/svg">
  <path d="M21.8405 19.7515L17.3408 15.341C18.4241 13.9274 19.0089 12.2068 19.0069 10.4388C19.0069 5.92287 15.2585 2.24881 10.6512 2.24881C6.04386 2.24881 2.29544 5.92287 2.29544 10.4388C2.29544 14.9548 6.04386 18.6288 10.6512 18.6288C12.4549 18.6307 14.2104 18.0575 15.6526 16.9957L20.1523 21.4062C20.3801 21.6057 20.6772 21.7123 20.9826 21.7039C21.288 21.6955 21.5785 21.5729 21.7945 21.3611C22.0106 21.1494 22.1357 20.8646 22.1442 20.5653C22.1528 20.2659 22.0441 19.9747 21.8405 19.7515ZM4.6828 10.4388C4.6828 9.28179 5.03284 8.15075 5.68865 7.18873C6.34447 6.2267 7.27661 5.47689 8.36719 5.03412C9.45777 4.59134 10.6578 4.47549 11.8156 4.70122C12.9733 4.92694 14.0368 5.4841 14.8715 6.30224C15.7062 7.12037 16.2746 8.16274 16.5049 9.29753C16.7352 10.4323 16.617 11.6086 16.1653 12.6775C15.7135 13.7465 14.9486 14.6601 13.9671 15.3029C12.9856 15.9457 11.8316 16.2888 10.6512 16.2888C9.06886 16.287 7.55188 15.67 6.433 14.5733C5.31412 13.4766 4.6847 11.9898 4.6828 10.4388Z" fill="#A6A6A6"/>
  </svg>
