<?xml version="1.0" encoding="utf-8"?>
<svg viewBox="0 0 500 500" style="shape-rendering: geometricprecision;" width="0px" xmlns="http://www.w3.org/2000/svg" xmlns:bx="https://boxy-svg.com">
  <defs>
    <clipPath id="id0">
      <path d="M3892.4 1038.17c451.42,201.19 654.26,730.24 453.09,1181.67 -201.19,451.42 -730.26,654.28 -1181.68,453.09 -144.61,-64.45 -263.67,-162.58 -352.14,-281.01l-1349.68 819.78c-73.94,-9.76 -113.58,-91.86 -89.83,-147.86l1349.82 -819.84c-110.1,-228.81 -122.71,-502.67 -11.25,-752.75 201.19,-451.44 730.25,-654.28 1181.67,-453.08zm-43.71 98.06c397.27,177.06 575.78,642.64 398.75,1039.91 -177.07,397.26 -642.66,575.79 -1039.91,398.7 -397.27,-177.03 -575.79,-642.62 -398.74,-1039.88 177.06,-397.26 642.64,-575.78 1039.9,-398.73z"/>
    </clipPath>
    <clipPath id="id1">
      <path d="M3848.69 1136.23c397.27,177.06 575.78,642.64 398.73,1039.9 -177.05,397.27 -642.64,575.78 -1039.9,398.73 -397.26,-177.05 -575.78,-642.64 -398.73,-1039.9 177.06,-397.26 642.64,-575.78 1039.9,-398.73z"/>
    </clipPath>
    <mask id="id2">
      <linearGradient id="id3" gradientUnits="userSpaceOnUse" x1="2051.16" y1="2660.55" x2="2066.89" y2="2686.22">
        <stop offset="0" style="stop-opacity:1; stop-color:white"/>
        <stop offset="1" style="stop-opacity:0; stop-color:white"/>
      </linearGradient>
      <rect style="fill:url(#id3)" x="1370.37" y="2241.85" width="1372.78" height="867.97"/>
    </mask>
    <mask id="id4">
      <linearGradient id="id5" gradientUnits="userSpaceOnUse" x1="1379.97" y1="3154.25" x2="1430.03" y2="3125.5">
        <stop offset="0" style="stop-opacity:1; stop-color:white"/>
        <stop offset="1" style="stop-opacity:0; stop-color:white"/>
      </linearGradient>
      <rect style="fill:url(#id5)" x="1356.35" y="3053.83" width="115.64" height="167.87"/>
    </mask>
    <radialGradient gradientUnits="userSpaceOnUse" cx="2430.969" cy="1838.046" r="1868.9" id="gradient-1" gradientTransform="matrix(1.975902, -0.00655, 0.003315, 0.999995, -1350.616826, 9.034686)">
      <stop offset="0" style="stop-color: rgb(139, 177, 231);"/>
      <stop offset="1" style="stop-color: rgb(0, 51, 123);"/>
    </radialGradient>
    <style bx:fonts="Arimo">@import url(https://fonts.googleapis.com/css2?family=Arimo%3Aital%2Cwght%400%2C400%3B0%2C500%3B0%2C600%3B0%2C700%3B1%2C400%3B1%2C500%3B1%2C600%3B1%2C700&amp;display=swap);</style>
    <style bx:fonts="Archivo Black">@import url(https://fonts.googleapis.com/css2?family=Archivo+Black%3Aital%2Cwght%400%2C400&amp;display=swap);</style>
  </defs>
  <g transform="matrix(1, 0, 0, 1, 15.849133, -18.226496)">
    <g id="_1288271464880" style="" transform="matrix(0.079114, 0, 0, 0.07996, 32.06406, 65.751511)">
      <text style="fill: rgb(27, 90, 250); font-family: &quot;Archivo Black&quot;; font-size: 145.022px; font-weight: 700; white-space: pre;" transform="matrix(3.920532, 0, 0, 6.551834, 4353.302246, -30586.607422)" x="-1098.52" y="5375.19"><title>title</title>PSICACADEMIC</text>
      <text class="fil11 fnt1" style="font-family: Arimo; font-size: 427.47px; stroke: rgb(242, 15, 91); white-space: pre;" x="3.34" y="4996.73">ANALYTICS</text>
      <path class="fil12" d="M2248.79 2663.71l-240.17 0 0 -570.93 -51.15 0 0 570.93 -363.72 0 0 -329.44 224.11 0 0 -820.66 -51.15 0 0 769.5 -397.11 0 0 -376.18 224.6 0 0 -549.73 515.17 0 0 -51.16 -566.33 0 0 549.73 -173.44 0 0 -790.11 879.19 0 0 1598.05zm-701.63 -1649.21l0 -490.13 351.1 0 0 223.88 634.55 0 0 -51.16 -583.39 0 0 -172.72 722.18 0 0 976.24 -223.88 0 0 51.16 223.88 0 0 571.07 249.75 0 0 -51.16 -198.59 0 0 -1598.47 -465.16 0 0 -236.42 769.28 0 0 2168.73 -519.25 0 0 -515.71 -51.16 0 0 566.87 570.41 0 0 384.62 -726.93 0 0 -1826.8 -752.79 0zm1818.02 -1014.5l0 502.77 51.16 0 0 -502.77 287.14 0 0 1162.18 -409.61 0 0 423.3 279.3 0 0 -51.16 -228.14 0 0 -320.98 358.45 0 0 1784.85 254.15 0 0 -105.73 308.21 0 0 308.65 186.07 0 0 363.26 -303.61 0 0 -439.93 -372.34 0 0 51.16 321.18 0 0 388.77 -194.57 0 0 -270.63 -443.99 0 0 -164.45 0 -25.57 0 -1260.39 -215.85 0 0 51.15 164.7 0 0 1183.66 -718.42 0 0 -185.68 389.03 0 0 -2059.59 376.14 0 0 -51.16 -376.14 0 0 -781.71 287.14 0zm389.46 194.51l431.41 0 0 210.8 -295.8 0 0 51.16 346.96 0 0 -261.96 210.51 0 0 414.02 -135.29 0 0 1636.36 -325.29 0 0 321.58 51.16 0 0 -270.42 274.13 0 0 545.25 -405.96 0 0 105.73 -151.83 0 0 -2114.16 299.82 0 0 786.56 186.29 0 0 -51.16 -135.13 0 0 -786.56 -350.98 0 0 -587.2zm853.83 465.18l0 824 -160.75 0 0 528.82 51.16 0 0 -477.66 160.75 0 0 -875.16 244.84 0 0 1543.08 -384.61 0 0 51.16 435.76 0 0 -1044.5 151.78 0 0 1361.26 -743.81 0 0 -1911 244.88 0zm-244.88 1962.15l401.27 0 0 373.77 -447.86 0 0 -103.15 46.59 0 0 -270.62z" style="paint-order: stroke; stroke: rgb(242, 15, 91); fill: url(#gradient-1);"/>
      <path class="fil11" d="M3892.4 1038.17c451.42,201.19 654.26,730.24 453.09,1181.67 -201.19,451.42 -730.26,654.28 -1181.68,453.09 -144.61,-64.45 -263.67,-162.58 -352.14,-281.01l-1349.68 819.78c-73.94,-9.76 -113.58,-91.86 -89.83,-147.86l1349.82 -819.84c-110.1,-228.81 -122.71,-502.67 -11.25,-752.75 201.19,-451.44 730.25,-654.28 1181.67,-453.08zm-43.71 98.06c397.27,177.06 575.78,642.64 398.75,1039.91 -177.07,397.26 -642.66,575.79 -1039.91,398.7 -397.27,-177.03 -575.79,-642.62 -398.74,-1039.88 177.06,-397.26 642.64,-575.78 1039.9,-398.73z" style="stroke: rgb(242, 15, 91);"/>
      <g style="clip-path:url(#id0)">
        <g>
          <path id="1" class="fil13" d="M3671.77 972.05c0,0 -1228.28,2.04 -949.81,1279.8 0,0 -280.92,-499.33 131.61,-984.74 412.53,-485.4 800.13,-329.73 818.2,-295.06z" style="fill: rgb(255, 255, 255); fill-opacity: 0.278431; stroke: rgb(242, 15, 91);"/>
        </g>
      </g>
      <path class="fil14" d="M3892.4 1038.17c451.42,201.19 654.26,730.24 453.09,1181.67 -201.19,451.42 -730.26,654.28 -1181.68,453.09 -144.61,-64.45 -263.67,-162.58 -352.14,-281.01l-1349.68 819.78c-73.94,-9.76 -113.58,-91.86 -89.83,-147.86l1349.82 -819.84c-110.1,-228.81 -122.71,-502.67 -11.25,-752.75 201.19,-451.44 730.25,-654.28 1181.67,-453.08zm-43.71 98.06c397.27,177.06 575.78,642.64 398.75,1039.91 -177.07,397.26 -642.66,575.79 -1039.91,398.7 -397.27,-177.03 -575.79,-642.62 -398.74,-1039.88 177.06,-397.26 642.64,-575.78 1039.9,-398.73z" style="fill: none; stroke: rgb(242, 15, 91);"/>
      <path class="fil11" d="M3848.69 1136.23c397.27,177.06 575.78,642.64 398.73,1039.9 -177.05,397.27 -642.64,575.78 -1039.9,398.73 -397.26,-177.05 -575.78,-642.64 -398.73,-1039.9 177.06,-397.26 642.64,-575.78 1039.9,-398.73z" style="stroke: rgb(242, 15, 91);"/>
      <g style="clip-path:url(#id1)">
        <g>
          <g>
            <polygon id="1" class="fil15" points="-28.68,-803.33 -28.68,454.71 -794.27,454.71 -794.27,-1568.45 710.34,-1568.45 710.34,1231.97 1824.69,1231.97 1824.69,-3202.06 2940.31,-3202.06 2940.31,1394.04 3173.07,1394.04 3173.07,1231.97 3795.38,1231.97 3795.38,-2190.77 4781.37,-2190.77 4781.37,331.54 4113.36,331.54 4113.36,253.12 4702.94,253.12 4702.94,-2112.35 3873.8,-2112.35 3873.8,1310.39 3251.48,1310.39 3251.48,1472.46 2861.89,1472.46 2861.89,-3123.64 1903.12,-3123.64 1903.12,1310.39 631.92,1310.39 631.92,-1490.03 -715.85,-1490.03 -715.85,376.28 -107.1,376.28 -107.1,-803.33 " style="fill-rule: nonzero; stroke: rgb(242, 15, 91); fill: rgb(27, 90, 250);"/>
            <polygon class="fil15" points="-372.23,415.49 -372.23,959.73 671.13,959.73 671.13,1038.15 -450.66,1038.15 -450.66,415.49 " style="fill: rgb(255, 204, 0); fill-rule: nonzero; stroke: rgb(242, 15, 91);"/>
            <polygon class="fil15" points="-522.08,-1529.24 -522.08,-2398.22 1358.49,-2398.22 1358.49,52.17 1662.92,52.17 1662.92,130.59 1280.07,130.59 1280.07,-2319.8 -443.66,-2319.8 -443.66,-1529.24 " style="fill: rgb(255, 204, 0); fill-rule: nonzero; stroke: rgb(242, 15, 91);"/>
            <polygon class="fil15" points="566.99,-2359.01 566.99,-2839.06 1863.9,-2839.06 1863.9,-2760.64 645.41,-2760.64 645.41,-2359.01 " style="fill: rgb(255, 204, 0); fill-rule: nonzero; stroke: rgb(242, 15, 91);"/>
            <polygon class="fil15" points="2901.1,-2903.88 4081.2,-2903.88 4081.2,-2151.56 4002.78,-2151.56 4002.78,-2825.46 2901.1,-2825.46 " style="fill: rgb(255, 204, 0); fill-rule: nonzero; stroke: rgb(242, 15, 91);"/>
            <polygon class="fil15" points="4742.16,-1348.06 5092.46,-1348.06 5092.46,895.55 3834.59,895.55 3834.59,817.12 5014.04,817.12 5014.04,-1269.63 4742.16,-1269.63 " style="fill: rgb(255, 204, 0); fill-rule: nonzero; stroke: rgb(242, 15, 91);"/>
            <polygon class="fil15" points="1306.76,1271.18 1306.76,1595.02 2408.05,1595.02 2408.05,-219.47 2155.58,-219.47 2155.58,-297.89 2486.48,-297.89 2486.48,1673.44 1228.33,1673.44 1228.33,1271.18 " style="fill: rgb(255, 204, 0); fill-rule: nonzero; stroke: rgb(242, 15, 91);"/>
            <path class="fil15" style="fill-rule: nonzero; stroke: rgb(242, 15, 91); fill: rgb(27, 90, 250);" d="M 2486.48 1634.23 L 2486.48 1925.53 L 3167.09 1925.53 L 3167.09 2340.4 L 4009.19 2340.4 C 4009.19 2340.4 4009.19 2091.331 4009.19 1966.797 C 4009.19 1905.708 4009.19 1783.53 4009.19 1783.53 L 3723.95 1783.53 L 3723.95 1271.18 L 3802.38 1271.18 L 3802.38 1705.11 L 4087.62 1705.11 L 4087.62 2418.82 L 3088.67 2418.82 L 3088.67 2003.95 L 2408.05 2003.95 L 2408.05 1634.23 Z"/>
            <polygon class="fil15" points="3763.17,1468.51 4488.94,1468.51 4488.94,856.33 4567.36,856.33 4567.36,1546.93 3763.17,1546.93 " style="fill-rule: nonzero; stroke: rgb(242, 15, 91); fill: rgb(27, 90, 250);"/>
            <polygon class="fil15" points="1319.28,-744.84 936.87,-744.84 936.87,-823.26 1319.28,-823.26 " style="fill: rgb(255, 204, 0); fill-rule: nonzero; stroke: rgb(242, 15, 91);"/>
            <polygon class="fil15" points="1863.9,-1925.31 2479.73,-1925.31 2479.73,-1846.88 1863.9,-1846.88 " style="fill: rgb(255, 204, 0); fill-rule: nonzero; stroke: rgb(242, 15, 91);"/>
            <polygon class="fil15" points="2901.1,-1925.31 3478.34,-1925.31 3478.34,-719.54 3685.49,-719.54 3685.49,-641.12 3399.92,-641.12 3399.92,-1846.88 2901.1,-1846.88 " style="fill: rgb(255, 204, 0); fill-rule: nonzero; stroke: rgb(242, 15, 91);"/>
            <polygon class="fil15" points="4327.61,-2151.56 4327.61,-770.78 4081.2,-770.78 4081.2,-38.54 4002.78,-38.54 4002.78,-849.2 4249.19,-849.2 4249.19,-2151.56 " style="fill: rgb(255, 204, 0); fill-rule: nonzero; stroke: rgb(242, 15, 91);"/>
            <polygon class="fil15" points="3834.59,396.11 3375.14,396.11 3375.14,810.65 3296.72,810.65 3296.72,317.69 3834.59,317.69 " style="fill: rgb(255, 204, 0); fill-rule: nonzero; stroke: rgb(242, 15, 91);"/>
            <polygon class="fil15" points="3465.35,2379.61 3465.35,1744.43 2973,1744.43 2973,1666.01 3543.77,1666.01 3543.77,2379.61 " style="fill-rule: nonzero; stroke: rgb(242, 15, 91); fill: rgb(27, 90, 250);"/>
            <polygon class="fil15" points="1863.9,642.36 950.29,642.36 950.29,-226.63 1028.71,-226.63 1028.71,563.93 1863.9,563.93 " style="fill: rgb(255, 204, 0); fill-rule: nonzero; stroke: rgb(242, 15, 91);"/>
            <polygon class="fil15" points="-755.06,-278.81 -449.97,-278.81 -449.97,-1121.53 418.19,-1121.53 418.19,-1043.1 -371.54,-1043.1 -371.54,-200.39 -755.06,-200.39 " style="fill: rgb(255, 204, 0); fill-rule: nonzero; stroke: rgb(242, 15, 91);"/>
            <polygon class="fil15" points="185.33,998.94 185.33,84.52 263.75,84.52 263.75,998.94 " style="fill: rgb(255, 204, 0); fill-rule: nonzero; stroke: rgb(242, 15, 91);"/>
            <polygon class="fil15" points="172.99,-2359.01 172.99,-2055.03 1067.31,-2055.03 1067.31,-1976.6 94.57,-1976.6 94.57,-2359.01 " style="fill: rgb(255, 204, 0); fill-rule: nonzero; stroke: rgb(242, 15, 91);"/>
            <polygon class="fil15" points="2421.71,-3162.85 2421.71,-2352.9 2343.29,-2352.9 2343.29,-3162.85 " style="fill: rgb(255, 204, 0); fill-rule: nonzero; stroke: rgb(242, 15, 91);"/>
            <polygon class="fil15" points="3680.07,-2864.67 3680.07,-2423.89 3148.21,-2423.89 3148.21,-2502.31 3601.65,-2502.31 3601.65,-2864.67 " style="fill: rgb(255, 204, 0); fill-rule: nonzero; stroke: rgb(242, 15, 91);"/>
            <polygon class="fil15" points="2901.1,-1263.63 2312.4,-1263.63 2312.4,-771.58 2662.13,-771.58 2662.13,-693.16 2233.98,-693.16 2233.98,-1342.06 2901.1,-1342.06 " style="fill: rgb(255, 204, 0); fill-rule: nonzero; stroke: rgb(242, 15, 91);"/>
          </g>
        </g>
      </g>
      <path class="fil14" d="M3848.69 1136.23c397.27,177.06 575.78,642.64 398.73,1039.9 -177.05,397.27 -642.64,575.78 -1039.9,398.73 -397.26,-177.05 -575.78,-642.64 -398.73,-1039.9 177.06,-397.26 642.64,-575.78 1039.9,-398.73z" style="fill: none; stroke: rgb(242, 15, 91);"/>
      <polygon class="fil16" style="mask: url(#id2); fill: rgb(255, 255, 255); stroke: rgb(242, 15, 91);" points="2733.15,2267.56 1408.71,3099.82 1380.37,3069.26 2721.97,2251.85 "/>
      <path class="fil16" style="mask: url(#id4); fill: rgb(255, 255, 255); stroke: rgb(242, 15, 91);" d="M1372.18 3063.83c0,0 -17.32,50.51 7.77,90.39 25.1,39.89 54.72,56.05 82.04,57.48 0,0 -14.44,-54.14 -39.05,-91.43 -24.6,-37.28 -50.76,-56.44 -50.76,-56.44z"/>
    </g>
  </g>
</svg>